PathFileType	4	(X/Y/Z)	C:\Users\Biomechanik\SynologyDrive\AlexP\Athlete_03\Athlete_3_25_03_31\Walking_10\marker_experimental.trc
DataRate	CameraRate	NumFrames	NumMarkers	Units	OrigDataRate	OrigDataStartFrame	OrigNumFrames
200.000000	200.000000	4	53	mm	200.000000	27	223
Frame#	Time	GLAB			RFHD			LFHD			C7			T6			SPINMOL			SPINM2			SPINM3			T12			BELTOL			BELT2			BELT3			SACROL			SACR2			SACR3			LTHOL			LTH2			LTH3			LSHAOL			LSHA2			LSHA3			LHEE			LTOE			LM5			RTHOL			RTH2			RTH3			RSHAOL			RSHA2			RSHA3			RHEE			RTOE			RM5			STRN			XIPH			LACR			LUAOL			LUA2			LUA3			LLAOL			LLA2			LLA3			LWRR			LWRU			RACR			RUAOL			RUA2			RUA3			RLAOL			RLA2			RLA3			RWRR			RWRU			
		X1	Y1	Z1	X2	Y2	Z2	X3	Y3	Z3	X4	Y4	Z4	X5	Y5	Z5	X6	Y6	Z6	X7	Y7	Z7	X8	Y8	Z8	X9	Y9	Z9	X10	Y10	Z10	X11	Y11	Z11	X12	Y12	Z12	X13	Y13	Z13	X14	Y14	Z14	X15	Y15	Z15	X16	Y16	Z16	X17	Y17	Z17	X18	Y18	Z18	X19	Y19	Z19	X20	Y20	Z20	X21	Y21	Z21	X22	Y22	Z22	X23	Y23	Z23	X24	Y24	Z24	X25	Y25	Z25	X26	Y26	Z26	X27	Y27	Z27	X28	Y28	Z28	X29	Y29	Z29	X30	Y30	Z30	X31	Y31	Z31	X32	Y32	Z32	X33	Y33	Z33	X34	Y34	Z34	X35	Y35	Z35	X36	Y36	Z36	X37	Y37	Z37	X38	Y38	Z38	X39	Y39	Z39	X40	Y40	Z40	X41	Y41	Z41	X42	Y42	Z42	X43	Y43	Z43	X44	Y44	Z44	X45	Y45	Z45	X46	Y46	Z46	X47	Y47	Z47	X48	Y48	Z48	X49	Y49	Z49	X50	Y50	Z50	X51	Y51	Z51	X52	Y52	Z52	X53	Y53	Z53	

28	0.135	-321.8262023925783	1571.9150390625	250.1462860107421	-371.7486572265627	1596.523803710938	315.1195678710937	-364.7858886718752	1598.230590820312	177.7324066162109	-552.3374633789064	1415.023071289062	232.9270782470702	-610.9125366210939	1247.145385742188	219.0992584228514	-619.7225341796876	1208.194946289062	195.9404907226561	-623.0534057617189	1198.608520507812	245.4458770751952	-615.4412231445314	1143.407104492188	208.9866333007811	-593.1807250976564	1077.875122070312	208.2848510742186	-623.6118774414064	1045.359008789062	192.7735900878905	-622.0679321289064	1042.977172851562	243.1855316162108	-629.5593872070314	983.22314453125	214.0941619873046	-618.3349609375001	930.6001586914062	198.2026062011718	-610.0062866210939	929.8021850585938	248.9201354980468	-626.0244140625	870.0220336914062	224.9340057373046	-567.340087890625	654.4208374023438	20.99249267578115	-611.6514892578125	603.4592895507812	63.74390029907215	-574.3865966796875	595.1914672851562	32.36283111572255	-699.5421752929688	382.6689758300781	23.41588211059558	-772.5031127929688	375.5325622558593	54.15597534179673	-740.0636596679688	338.8430175781249	39.0759124755858	-886.4528198242188	278.9786071777343	151.0506134033201	-862.0996704101562	66.55873870849604	151.2271270751951	-905.7293090820312	97.03475952148432	58.65100860595687	-436.366424560547	660.4175415039062	396.6912841796874	-362.3950195312501	629.741943359375	397.3863525390624	-405.1303100585939	608.3457641601562	386.0915222167968	-356.1571044921876	328.7208251953125	382.0087280273437	-313.8228759765626	262.7478637695312	373.7970275878906	-362.8878173828126	268.693115234375	367.7203369140624	-382.3691711425782	56.18742752075193	260.2688903808593	-168.7565307617188	49.76974487304687	257.1732482910156	-216.1897277832032	36.78802108764647	359.9174194335937	-382.6348266601564	1311.909545898438	229.1678009033203	-365.5730285644532	1169.463745117188	219.3537292480468	-472.3442077636719	1385.634399414062	57.87358856201163	-461.4545288085938	1240.048706054688	-50.26378631591805	-467.0415649414063	1179.428466796875	-75.24933624267587	-423.4981384277344	1186.405151367188	-50.31698989868172	-369.5846252441407	993.753662109375	-102.7108459472657	-371.4002075195313	916.1762084960938	-87.33332824707038	-331.9680480957032	946.0311889648438	-95.79558563232428	-260.5280151367188	871.0597534179688	-83.79888153076176	-237.5441131591797	899.374267578125	-13.63925743103032	-468.5420837402345	1356.1103515625	400.9033813476561	-506.4118041992189	1204.279296875	489.6625976562499	-492.896697998047	1140.054809570312	496.5743713378905	-542.0698242187502	1150.707153320312	506.0126647949218	-547.7227783203127	932.25048828125	533.1319580078124	-507.7766723632814	872.8652954101562	567.5863647460936	-547.1046752929689	869.2230834960938	537.7854614257811	-526.0579833984376	783.2443237304688	557.3690185546874	-483.6518859863283	761.198486328125	491.4039916992186	
29	0.14	-314.5185852050783	1572.944946289062	250.9078216552734	-364.3834228515627	1597.538208007812	315.9286193847656	-357.5110473632814	1599.294555664062	178.535171508789	-545.0185546875001	1416.054565429688	233.7845764160155	-603.5948486328126	1248.177124023438	219.8854522705077	-612.3911132812501	1209.223876953125	196.7098083496093	-615.6962280273439	1199.626586914062	246.2169647216796	-608.0869140625001	1144.432739257812	209.7408294677733	-585.8042602539064	1078.89501953125	209.067901611328	-616.3015747070314	1046.17919921875	193.3258361816405	-614.8364868164064	1043.876831054688	243.7455749511718	-622.2955932617189	984.07861328125	214.7347259521483	-610.8883666992189	931.1885375976562	198.8188476562499	-602.6488037109376	930.6201171875	249.5612945556639	-618.6635131835938	870.7344360351562	225.8114929199218	-556.0787353515625	653.8190307617188	20.95666313171376	-599.53173828125	601.9844360351562	63.55430221557607	-562.2869873046875	594.489013671875	31.96320152282705	-685.4140625	384.4315795898437	22.53493499755847	-758.273193359375	378.2787170410156	53.78035354614244	-726.4478759765625	341.1468811035156	38.42556762695299	-872.7042236328125	284.2352294921874	151.3868103027342	-852.9495849609375	69.92790985107416	150.6948852539061	-896.8465576171875	102.4996337890624	59.06782150268538	-430.1419372558595	661.130859375	397.4645690917968	-356.5944824218751	629.8173217773438	397.6670227050781	-399.458221435547	608.8759765625	386.6222839355468	-353.1572570800782	328.8990173339844	382.1133422851562	-311.4452514648438	262.5269165039062	373.7208557128906	-360.4959106445313	268.9171142578125	367.7605895996093	-382.1728515625001	56.4435348510742	260.0495910644531	-168.3687438964844	49.11321640014648	257.0277709960937	-216.1534881591797	36.91807556152342	359.8257446289062	-375.2915954589845	1313.066284179688	229.7877807617187	-358.3255004882814	1170.522094726562	219.9733276367187	-465.2433166503907	1386.777709960938	58.56495666503898	-455.0736083984376	1240.99267578125	-49.59536743164071	-461.0172729492188	1180.38134765625	-74.51856231689462	-417.3151855468751	1187.1337890625	-49.71690750122078	-364.9769897460938	993.87255859375	-102.2001266479493	-367.6289672851563	916.3321533203125	-86.83744812011726	-327.8899230957032	945.6907348632812	-95.54119873046881	-257.2679443359376	869.8543090820312	-84.00682830810551	-233.5457763671876	897.7522583007812	-13.94775867462162	-460.8699951171876	1357.1376953125	401.5979309082031	-497.7525024414064	1205.039794921875	490.5174865722655	-483.8425292968752	1140.824462890625	497.0495300292968	-532.9401855468752	1151.256958007812	506.9655151367186	-537.6567382812502	932.7560424804688	533.6310424804686	-497.1768798828127	873.4638671875	567.7496948242186	-536.6698608398439	869.6949462890625	538.1708984374999	-515.1063232421876	783.8626098632812	557.5221557617186	-473.2463684082033	762.035400390625	491.1056213378905	
30	0.145	-307.247528076172	1573.993041992188	251.6226806640624	-357.0613708496095	1598.563598632812	316.6934204101562	-350.2698364257814	1600.385620117188	179.2918395996093	-537.7295532226564	1417.118774414062	234.5906219482421	-596.3319091796876	1249.240356445312	220.6541442871093	-605.1133422851564	1210.276733398438	197.4738311767577	-608.4003906250001	1200.6845703125	246.9844665527343	-600.7886352539064	1145.486938476562	210.5101928710936	-578.4793090820314	1079.9296875	209.8724517822264	-609.0691528320314	1046.960083007812	193.9522094726561	-607.6638793945314	1044.733764648438	244.3783569335936	-615.0889282226564	984.8917236328125	215.4458465576171	-603.5005493164064	931.8250122070312	199.4915161132811	-595.3409423828126	931.469970703125	250.2554931640624	-611.369140625	871.4902954101562	226.7297973632811	-544.846923828125	653.373291015625	20.92349433898916	-587.4056396484375	600.6835327148438	63.37603378295888	-550.1837158203125	593.9595336914062	31.5980396270751	-671.1417846679688	386.2223510742187	21.69058418273913	-743.9016723632812	380.9990539550781	53.37938690185533	-712.6552734375	343.4573974609374	37.80368423461901	-858.9428100585938	289.2290649414062	151.7354888916014	-843.002685546875	73.32785797119135	150.1697540283202	-887.077880859375	107.7891845703124	59.39740753173812	-424.133514404297	661.8287963867188	398.1456604003906	-351.0393371582032	629.8557739257812	397.9165954589843	-394.016815185547	609.386962890625	387.0866699218749	-350.3545227050782	329.0607604980469	382.2016601562499	-309.2384643554688	262.3113403320312	373.6632690429687	-358.2646484375001	269.1300048828125	367.7905883789062	-382.0011291503907	56.68160247802732	259.8341369628906	-168.0375213623047	48.56678390502929	256.9117126464843	-216.1311492919922	37.05347061157225	359.7462158203124	-367.9949340820314	1314.225219726562	230.3436737060546	-351.1419982910157	1171.58251953125	220.5447235107421	-458.1903686523438	1387.919799804688	59.19741439819327	-448.7396240234376	1241.931396484375	-48.96423721313485	-455.0400085449219	1181.3251953125	-73.80780792236337	-411.1814270019532	1187.863647460938	-49.14864730834969	-360.4388427734376	993.9827880859375	-101.7120208740235	-363.9497070312501	916.4932250976562	-86.3514709472657	-323.9030761718751	945.3367309570312	-95.3079452514649	-254.1325225830078	868.6248779296875	-84.23535156250004	-229.6588745117188	896.1019897460938	-14.28820419311528	-453.216033935547	1358.185546875	402.2348327636718	-489.1074829101564	1205.844116210938	491.3404846191405	-474.7947082519533	1141.639404296875	497.4917907714843	-523.811950683594	1151.852294921875	507.894073486328	-527.5380859375002	933.2952270507812	534.1442871093749	-486.4885559082033	874.1168212890625	567.9035034179686	-526.1627197265626	870.2081298828125	538.5689086914061	-504.0310363769533	784.5310668945312	557.6658935546874	-462.7124938964845	762.937255859375	490.8021850585937	
31	0.15	-300.0101318359377	1575.057373046875	252.2903900146484	-349.7779846191408	1599.599853515625	317.4132385253906	-343.059783935547	1601.500366210938	180.0016937255859	-530.4713745117189	1418.212646484375	235.3470306396484	-589.1196899414064	1250.331176757812	221.4056091308593	-597.8853149414064	1211.3505859375	198.2326049804686	-601.1610107421876	1201.778076171875	247.7481994628905	-593.5424194335939	1146.566650390625	211.2929382324218	-571.2027587890626	1080.977172851562	210.6938018798827	-601.9069824218751	1047.713623046875	194.6522827148436	-600.5418701171876	1045.559448242188	245.083526611328	-607.9328002929689	985.6744384765625	216.2261352539061	-596.1661376953126	932.510986328125	200.2129669189452	-588.0809326171876	932.352783203125	250.9959869384764	-604.1281127929688	872.2886962890625	227.6787872314452	-533.65771484375	653.0858764648438	20.8972225189208	-575.2804565429688	599.5587768554688	63.21577072143544	-538.0872192382812	593.6055908203125	31.27060508728017	-656.75	388.0421447753906	20.89346504211414	-729.41552734375	383.6887817382812	52.96408462524401	-698.7079467773438	345.7716369628906	37.21931838989245	-845.1962890625	293.9348144531249	152.0892639160155	-832.2437133789062	76.72015380859369	149.6717376708983	-876.4134521484375	112.8315887451171	59.63906097412093	-418.3363037109376	662.5176391601562	398.7377014160156	-345.7148437500001	629.8707275390625	398.1447753906249	-388.7921752929689	609.8858642578125	387.4938659667968	-347.7248840332032	329.2061157226562	382.2812805175781	-307.1770935058594	262.1011962890625	373.6242675781249	-356.1713867187501	269.3312072753906	367.8173217773437	-381.8483886718751	56.90689849853513	259.6235046386718	-167.7535705566407	48.11450195312499	256.8219604492187	-216.1184082031251	37.1866989135742	359.6788635253906	-360.7417907714845	1315.38671875	230.8382873535156	-344.0134582519532	1172.648559570312	221.0707397460937	-451.1836547851563	1389.060180664062	59.77350997924796	-442.4488525390626	1242.864501953125	-48.36780548095711	-449.1005249023438	1182.259643554688	-73.11814880371102	-405.0906066894532	1188.596435546875	-48.61089324951179	-355.9656372070313	994.0875854492188	-101.2466049194337	-360.3563232421876	916.6629028320312	-85.87795257568366	-320.0025329589844	944.9739379882812	-95.09545135498053	-251.1155090332032	867.3786010742188	-84.48469543457036	-225.880599975586	894.429931640625	-14.66036128997807	-445.5827026367189	1359.254028320312	402.8167419433593	-480.4770812988283	1206.690551757812	492.1302795410155	-465.7561645507814	1142.500122070312	497.9026489257811	-514.689636230469	1152.492065429688	508.7982788085936	-517.3660278320315	933.8695068359375	534.6702880859374	-475.7118530273439	874.825439453125	568.0427246093749	-515.5861816406251	870.76513671875	538.9788208007811	-492.8380126953127	785.2491455078125	557.7965087890624	-452.0534667968752	763.9043579101562	490.4910888671874	
